<svg xmlns="http://www.w3.org/2000/svg" width="46" height="46" viewBox="0 0 46 46">
  <g id="Group_617" data-name="Group 617" transform="translate(-709 -73)">
    <g id="Ellipse_91" data-name="Ellipse 91" transform="translate(709 73)" fill="#fff" stroke="#fff" stroke-width="1">
      <circle cx="23" cy="23" r="23" stroke="none"/>
      <circle cx="23" cy="23" r="22.5" fill="none"/>
    </g>
    <g id="Group_580" data-name="Group 580" transform="translate(724 82)">
      <path id="Path_2426" data-name="Path 2426" d="M250.232,399.053q0-2.559,0-5.118c0-.876,0-.876-.91-.876-.853,0-1.706-.012-2.559,0-.522.009-.757-.212-.752-.742q.019-2.144,0-4.288c0-.5.231-.716.715-.706.3.006.6.012.9,0,.845-.048,1.943.364,2.465-.163.486-.49.113-1.581.138-2.407a14.27,14.27,0,0,1,.22-2.542,6.18,6.18,0,0,1,6.058-5.077c1.313-.032,2.628,0,3.942-.017.544-.007.814.2.808.768q-.019,1.937,0,3.873c.007.558-.235.791-.788.789-.9,0-1.8.007-2.7.056-1.2.067-1.5.381-1.524,1.562-.017.83.015,1.661-.015,2.489-.016.442.114.6.577.586,1.129-.032,2.259,0,3.389-.015.633-.01.931.238.92.9q-.034,2.04,0,4.081c.012.643-.281.851-.883.84-1.129-.022-2.26.018-3.389-.017-.494-.016-.613.148-.611.623.018,3.5.011,7.009.009,10.513,0,1.143-.081,1.224-1.209,1.227-1.291,0-2.583-.024-3.873.01-.7.018-.942-.295-.937-.949C250.241,402.649,250.233,400.851,250.232,399.053Z" transform="translate(-246.01 -377.113)" fill="#66949e"/>
    </g>
  </g>
</svg>
