<svg xmlns="http://www.w3.org/2000/svg" width="46" height="46" viewBox="0 0 46 46">
  <g id="Group_618" data-name="Group 618" transform="translate(-653 -73)">
    <g id="Ellipse_92" data-name="Ellipse 92" transform="translate(653 73)" fill="#fff" stroke="#fff" stroke-width="1">
      <circle cx="23" cy="23" r="23" stroke="none"/>
      <circle cx="23" cy="23" r="22.5" fill="none"/>
    </g>
    <g id="Group_579" data-name="Group 579" transform="translate(665 85)">
      <path id="Path_2423" data-name="Path 2423" d="M129.94,272.677c0-1.377,0-2.754,0-4.131a6.956,6.956,0,0,1,6.981-6.988q4.152-.014,8.306,0a6.954,6.954,0,0,1,6.978,6.991q.013,4.131,0,8.263a6.954,6.954,0,0,1-7,7.01q-4.131.012-8.262,0a6.956,6.956,0,0,1-7-7.013C129.936,275.431,129.94,274.054,129.94,272.677Zm2.085.013c0,1.348,0,2.7,0,4.044a4.878,4.878,0,0,0,4.993,5q4.066.008,8.132,0a4.875,4.875,0,0,0,4.97-4.981q.009-4.066,0-8.132a4.875,4.875,0,0,0-4.971-4.981q-4.088-.01-8.176,0a4.874,4.874,0,0,0-4.948,4.959C132.02,269.964,132.025,271.327,132.025,272.69Z" transform="translate(-129.938 -261.551)" fill="#66949e"/>
      <path id="Path_2424" data-name="Path 2424" d="M148.373,274.449a5.566,5.566,0,1,1-5.545,5.565A5.573,5.573,0,0,1,148.373,274.449Zm.016,9.046a3.48,3.48,0,1,0-3.475-3.486A3.5,3.5,0,0,0,148.389,283.495Z" transform="translate(-137.259 -268.876)" fill="#66949e"/>
      <path id="Path_2425" data-name="Path 2425" d="M168.569,271.8a.7.7,0,0,1,.736.728.745.745,0,0,1-.74.744.788.788,0,0,1-.732-.725A.746.746,0,0,1,168.569,271.8Z" transform="translate(-151.459 -267.371)" fill="#66949e"/>
    </g>
  </g>
</svg>
