<svg xmlns="http://www.w3.org/2000/svg" width="46" height="46" viewBox="0 0 46 46">
  <g id="Group_620" data-name="Group 620" transform="translate(-531 -73)">
    <g id="Ellipse_92" data-name="Ellipse 92" transform="translate(531 73)" fill="#fff" stroke="#fff" stroke-width="1">
      <circle cx="23" cy="23" r="23" stroke="none"/>
      <circle cx="23" cy="23" r="22.5" fill="none"/>
    </g>
    <g id="Group_582" data-name="Group 582" transform="translate(543 82)">
      <path id="Path_2428" data-name="Path 2428" d="M118,383.187a5.1,5.1,0,0,1,3.326-2.376,6.967,6.967,0,0,1,4.092.332,4.68,4.68,0,0,1,2.778,3.717,14.556,14.556,0,0,1,.262,3.125c0,2.707-.006,5.414.013,8.12,0,.418-.1.558-.535.547q-1.915-.046-3.831,0c-.42.009-.5-.14-.494-.522.015-2.535.007-5.07.005-7.606a7.127,7.127,0,0,0-.208-1.81,2.083,2.083,0,0,0-2.064-1.789,2.525,2.525,0,0,0-2.743,1.414,4.023,4.023,0,0,0-.362,1.6c-.018,2.687-.041,5.375-.03,8.062,0,.507-.108.7-.654.677-1.238-.042-2.478-.026-3.717-.006-.382.006-.524-.082-.523-.5q.021-7.32,0-14.64c0-.353.069-.5.464-.5,1.258.024,2.516.02,3.774,0,.352,0,.469.109.451.458C117.985,382.008,118,382.513,118,383.187Z" transform="translate(-105.059 -373.263)" fill="#66949e"/>
      <path id="Path_2429" data-name="Path 2429" d="M49.14,391.968c0,2.384-.011,4.767.01,7.15,0,.456-.092.633-.589.619-1.257-.036-2.517-.021-3.775-.006-.345,0-.5-.057-.5-.462q.021-7.351,0-14.7c0-.393.135-.472.492-.467,1.277.018,2.555.026,3.832,0,.436-.01.542.128.539.548C49.13,387.086,49.14,389.527,49.14,391.968Z" transform="translate(-43.924 -376.318)" fill="#66949e"/>
      <path id="Path_2430" data-name="Path 2430" d="M41.135,318.942a2.751,2.751,0,0,1,2.753-2.819,2.815,2.815,0,0,1,2.865,2.791,2.87,2.87,0,0,1-2.777,2.842A2.814,2.814,0,0,1,41.135,318.942Z" transform="translate(-41.135 -316.122)" fill="#66949e"/>
    </g>
  </g>
</svg>
