<svg xmlns="http://www.w3.org/2000/svg" width="46" height="46" viewBox="0 0 46 46">
  <g id="Group_621" data-name="Group 621" transform="translate(-465 -73)">
    <g id="Ellipse_91" data-name="Ellipse 91" transform="translate(465 73)" fill="#fff" stroke="#fff" stroke-width="1">
      <circle cx="23" cy="23" r="23" stroke="none"/>
      <circle cx="23" cy="23" r="22.5" fill="none"/>
    </g>
    <g id="Group_584" data-name="Group 584" transform="translate(473.684 81.686)">
      <path id="Path_2432" data-name="Path 2432" d="M423.3,39.941a14.462,14.462,0,1,1,16.557,14.32,14.785,14.785,0,0,1-5.331-.163c-.752-.166-.843-.317-.46-.988a20.6,20.6,0,0,0,1.665-4.922c.239-.866.359-.9,1.048-.379a5.194,5.194,0,0,0,5.1.562,8.094,8.094,0,0,0,5.247-6.011c.938-3.5.507-6.742-2.188-9.4a9.178,9.178,0,0,0-6.155-2.624,10.863,10.863,0,0,0-7.506,2.1,8.719,8.719,0,0,0-1.743,11.874,4.612,4.612,0,0,0,1.367,1.2c.39.224.615.12.719-.3.112-.456.229-.911.334-1.369a.981.981,0,0,0-.182-.79,6.508,6.508,0,0,1,4.288-9.872c2.642-.479,5.028-.014,6.808,2.2a6.421,6.421,0,0,1,1.234,4.731,7.929,7.929,0,0,1-1.715,4.69,3.93,3.93,0,0,1-3.2,1.519,2.219,2.219,0,0,1-2.179-2.784c.336-1.585,1.02-3.079,1.212-4.7a2.144,2.144,0,0,0-1.17-2.471,2.372,2.372,0,0,0-2.73.954,3.884,3.884,0,0,0-.768,3.072,13.384,13.384,0,0,1-.5,5.845,24.175,24.175,0,0,0-1.095,6.3c.025.7-.471.484-.837.3a14.454,14.454,0,0,1-7.83-12.893Z" transform="translate(-423.301 -25.465)" fill="#66949e"/>
    </g>
  </g>
</svg>
