<svg xmlns="http://www.w3.org/2000/svg" width="46" height="46" viewBox="0 0 46 46">
  <g id="Group_619" data-name="Group 619" transform="translate(-587 -73)">
    <g id="Ellipse_91" data-name="Ellipse 91" transform="translate(587 73)" fill="#fff" stroke="#fff" stroke-width="1">
      <circle cx="23" cy="23" r="23" stroke="none"/>
      <circle cx="23" cy="23" r="22.5" fill="none"/>
    </g>
    <g id="Group_581" data-name="Group 581" transform="translate(597 85)">
      <path id="Path_2427" data-name="Path 2427" d="M294.549,120.011a11.273,11.273,0,0,0,7.812-2.285,5.749,5.749,0,0,1-5.071-3.834,7.136,7.136,0,0,0,2.348-.092,5.775,5.775,0,0,1-4.266-5.406,5.548,5.548,0,0,0,2.31.491,8.853,8.853,0,0,1-1.269-1.392,5.269,5.269,0,0,1-.458-5.393c.146-.324.243-.451.555-.1a15.434,15.434,0,0,0,9.969,5.3c.086.011.174.014.26.027.522.079.75.026.643-.659a5.472,5.472,0,0,1,9.016-4.7,1.042,1.042,0,0,0,1.158.251,15.667,15.667,0,0,0,2.74-1.131,5.588,5.588,0,0,1-2.229,2.956,13.2,13.2,0,0,0,2.955-.762,7.869,7.869,0,0,1-1.932,2.185,1.92,1.92,0,0,0-.8,1.685c-.341,6.233-3.1,11.046-8.8,13.783a15.242,15.242,0,0,1-14.37-.475A1.182,1.182,0,0,1,294.549,120.011Z" transform="translate(-294.549 -100.644)" fill="#66949e"/>
    </g>
  </g>
</svg>
