<svg xmlns="http://www.w3.org/2000/svg" width="46" height="46" viewBox="0 0 46 46">
  <g id="Group_583" data-name="Group 583" transform="translate(11 14)">
    <g id="Ellipse_92" data-name="Ellipse 92" transform="translate(-11 -14)" fill="#fff" stroke="#fff" stroke-width="1">
      <circle cx="23" cy="23" r="23" stroke="none"/>
      <circle cx="23" cy="23" r="22.5" fill="none"/>
    </g>
    <path id="Path_2431" data-name="Path 2431" d="M-9.154,71.347c2.5,0,4.993-.007,7.49,0a4.614,4.614,0,0,1,4.836,4.8q.021,4.017,0,8.033A4.629,4.629,0,0,1-1.666,89q-7.52,0-15.04,0a4.632,4.632,0,0,1-4.833-4.816q-.019-4.017,0-8.033a4.6,4.6,0,0,1,4.835-4.8C-14.188,71.341-11.671,71.347-9.154,71.347Zm3.22,8.832-6.474-3.787V83.97Z" transform="translate(21.549 -71.345)" fill="#66949e"/>
  </g>
</svg>
