<svg xmlns="http://www.w3.org/2000/svg" xmlns:xlink="http://www.w3.org/1999/xlink" width="23" height="23" viewBox="0 0 23 23">
  <defs>
    <clipPath id="clip-path">
      <rect width="23" height="23" fill="none"/>
    </clipPath>
  </defs>
  <g id="Icon_Thumbs_Up_Filled" data-name="Icon / Thumbs Up / Filled" transform="translate(23 23) rotate(180)" clip-path="url(#clip-path)">
    <rect id="Box" width="23" height="23" fill="none"/>
    <path id="Path_1994" data-name="Path 1994" d="M97-3.136h3.773V-14.454H97Zm20.751-10.375a1.892,1.892,0,0,0-1.886-1.886h-5.952l.9-4.311.028-.3a1.42,1.42,0,0,0-.415-1l-1-.99-6.206,6.216a1.844,1.844,0,0,0-.556,1.33v9.432a1.892,1.892,0,0,0,1.886,1.886h8.489a1.874,1.874,0,0,0,1.736-1.151l2.849-6.65a1.864,1.864,0,0,0,.132-.689v-1.8l-.009-.009Z" transform="translate(-96.057 23.886)" fill="#707070"/>
  </g>
</svg>
