<svg xmlns="http://www.w3.org/2000/svg" width="25.048" height="25.048" viewBox="0 0 25.048 25.048">
  <path id="Path_2456" data-name="Path 2456" d="M3170.667,25.057a12.524,12.524,0,1,1,12.524-12.524A12.538,12.538,0,0,1,3170.667,25.057Zm0-23.886a11.362,11.362,0,1,0,11.362,11.362A11.375,11.375,0,0,0,3170.667,1.171Z" transform="translate(-3158.143 -0.009)" fill="#f27b7d"/>
  <path id="Path_2457" data-name="Path 2457" d="M3210.172,68.5a.821.821,0,0,1-.544-.2l-.056-.054c-.443-.385-.9-.77-1.34-1.142a46.039,46.039,0,0,1-3.431-3.1l-.008-.008a6.536,6.536,0,0,1-1.856-3.159,3.686,3.686,0,0,1-.112-.948h0a4.319,4.319,0,0,1,2.763-4.23,3.808,3.808,0,0,1,4.367,1.286l.007.009c.084.1.139.153.2.153.074,0,.151-.089.185-.129l.01-.013a3.708,3.708,0,0,1,4.166-1.358l.01,0A3.992,3.992,0,0,1,3217.422,59l0,.015a5.242,5.242,0,0,1-1.4,4.434l0,0a31.888,31.888,0,0,1-3.641,3.413l-.008.007c-.515.448-1.047.912-1.579,1.361l-.025.023A.822.822,0,0,1,3210.172,68.5Zm-3.26-12.092a2.858,2.858,0,0,0-.977.173,3.331,3.331,0,0,0-2.123,3.263V59.9a2.664,2.664,0,0,0,.082.693,5.545,5.545,0,0,0,1.58,2.686l.033.033a45.153,45.153,0,0,0,3.358,3.031c.432.365.875.738,1.308,1.114.521-.44,1.044-.9,1.552-1.338l.031-.026a30.941,30.941,0,0,0,3.536-3.315l.014-.015a4.254,4.254,0,0,0,1.142-3.609l-.006-.041a3.006,3.006,0,0,0-2.183-2.558l-.04-.012a2.725,2.725,0,0,0-3.068,1l-.039.051a1.211,1.211,0,0,1-.948.495,1.245,1.245,0,0,1-.962-.513l-.03-.037A2.823,2.823,0,0,0,3206.912,56.41Z" transform="translate(-3197.63 -48.983)" fill="#f27b7d"/>
</svg>
