<svg xmlns="http://www.w3.org/2000/svg" width="286.689" height="183.634" viewBox="0 0 286.689 183.634">
  <g id="Group_151" data-name="Group 151" transform="translate(-106.655 -158.183)">
    <path id="Path_1719" data-name="Path 1719" d="M369.726,268.72H347.391A18.71,18.71,0,0,0,328.7,287.409a3.647,3.647,0,0,0,7.294,0,11.408,11.408,0,0,1,11.395-11.395h22.335a16.324,16.324,0,0,1,0,32.648H314.221V298.5c0-.146,0-.3-.013-.451a17.464,17.464,0,1,0-17.453,17.917h10.059v8.385c0,.185,0,.358-.013.53a10.185,10.185,0,0,1-7.683,9.325c-.292.07-.586.136-.887.181l-.194.029a10.25,10.25,0,0,1-1.295.087,10.1,10.1,0,0,1-7.765-3.606,4.272,4.272,0,0,0-.472-.461,10.077,10.077,0,0,1-1.371-2.486,3.641,3.641,0,0,0-3.378-2.446h-.19a3.568,3.568,0,0,0-3.344,4.788,17.289,17.289,0,0,0,18.839,11.338c.272-.036.544-.073.812-.122.176-.033.35-.071.525-.11q.636-.135,1.253-.316l.156-.046a17.473,17.473,0,0,0,11.619-11.56,16.66,16.66,0,0,0,.769-4.615c.013-.172.013-.358.013-.53v-8.365h.013v-.01h55.505a23.618,23.618,0,0,0,0-47.236ZM286.7,300.068a10.173,10.173,0,1,1,20.212-2.085c0,.022,0,.045,0,.067h0v3.114a3.231,3.231,0,0,0-.1.767v6.741h-9.723A10.4,10.4,0,0,1,286.7,300.068Z" fill="#fff"/>
    <path id="Path_1720" data-name="Path 1720" d="M220.287,304.43a10.041,10.041,0,0,1-9.931,11.52H130.9c-13.079,0-24.329-10.7-24.24-23.78a23.321,23.321,0,0,1,3.151-11.58,23.58,23.58,0,0,1,20.47-11.87h22.329A18.694,18.694,0,0,1,171.3,287.41a3.65,3.65,0,0,1-4.381,3.57A3.745,3.745,0,0,1,164,287.31a11.411,11.411,0,0,0-11.391-11.3H130.277a16.365,16.365,0,0,0-16.33,16.28c-.031,9.01,7.79,16.37,16.79,16.37h79.48a2.841,2.841,0,0,0,2.843-2.238,2.751,2.751,0,0,0-2.7-3.242h-5.889a16.369,16.369,0,0,1-16.321-16.32v-1.8a16.094,16.094,0,0,1,.631-4.47,16.328,16.328,0,0,1,20.17-11.2,15.424,15.424,0,0,1,3.99,1.75,16.676,16.676,0,0,1,5.985,6.5,13.517,13.517,0,0,1,.629,1.759,3.71,3.71,0,0,1-3.54,4.805h0a3.69,3.69,0,0,1-3.37-2.165,17.164,17.164,0,0,0-1.7-3.054,13.355,13.355,0,0,0-.943-.971,8.856,8.856,0,0,0-5.57-1.94,8.99,8.99,0,0,0-8.98,8.99v1.8a9.019,9.019,0,0,0,9.02,9.02H210A10.278,10.278,0,0,1,220.287,304.43Z" fill="#fff"/>
    <rect id="Rectangle_66" data-name="Rectangle 66" width="7.294" height="56.796" rx="3.647" transform="translate(259.552 268.72)" fill="#fff"/>
    <path id="Path_1721" data-name="Path 1721" d="M247.117,284.689a3.647,3.647,0,1,0-7.294,0v39.636c0,.185,0,.358-.013.53a10,10,0,0,1-1.393,4.615,10.157,10.157,0,0,1-8.766,5.027c-.14,0-.276-.018-.414-.023-.308-.017-.617-.028-.917-.072-.1-.013-.2-.034-.3-.05a10.123,10.123,0,0,1-7.743-6.408A3.641,3.641,0,0,0,216.9,325.5h-.189a3.568,3.568,0,0,0-3.344,4.788,17.379,17.379,0,0,0,2.311,4.338,3.836,3.836,0,0,0,.545.877,17.42,17.42,0,0,0,10,5.933q.613.128,1.242.212c.118.014.235.029.354.042a17.769,17.769,0,0,0,1.969.123,17.469,17.469,0,0,0,17.453-16.936C247.255,324.7,247.117,284.689,247.117,284.689Z" fill="#fff"/>
    <path id="Path_1722" data-name="Path 1722" d="M243.471,268.72a4.963,4.963,0,0,0-4.962,4.962h0a4.962,4.962,0,1,0,9.924,0h0A4.962,4.962,0,0,0,243.471,268.72Z" fill="#fff"/>
    <circle id="Ellipse_14" data-name="Ellipse 14" cx="4.962" cy="4.962" r="4.962" transform="translate(356.039 318.348)" fill="#fff"/>
    <g id="Group_148" data-name="Group 148">
      <circle id="Ellipse_15" data-name="Ellipse 15" cx="4.962" cy="4.962" r="4.962" transform="translate(164.628 318.348)" fill="#fff"/>
      <path id="Path_1723" data-name="Path 1723" d="M157.772,318.348a4.963,4.963,0,1,0,4.962,4.962A4.962,4.962,0,0,0,157.772,318.348Z" fill="#fff"/>
    </g>
    <g id="Group_150" data-name="Group 150">
      <path id="Path_1724" data-name="Path 1724" d="M249.933,158.183a49.373,49.373,0,1,0,49.373,49.373A49.377,49.377,0,0,0,249.933,158.183Z" fill="#fff"/>
      <g id="Group_149" data-name="Group 149">
        <circle id="Ellipse_16" data-name="Ellipse 16" cx="4.962" cy="4.962" r="4.962" transform="translate(244.968 207.743)" fill="#67949e"/>
        <path id="Path_1725" data-name="Path 1725" d="M227.549,182.135a3.657,3.657,0,0,1-.007-7.314H273.68a3.657,3.657,0,0,1-.007,7.314Z" fill="#67949e"/>
        <path id="Path_1726" data-name="Path 1726" d="M249.964,240.291a30.275,30.275,0,0,1-12.757-2.907,24.463,24.463,0,0,1-11.629-11.329c-4.552-9.255-4.269-19.316.774-27.6a27.555,27.555,0,0,1,23.059-13.33h24.267a3.657,3.657,0,0,1,0,7.314H250.652l-1.083.021-.726.031a20.212,20.212,0,0,0-15.295,8.4,20.7,20.7,0,0,0-3.854,11.937,20.275,20.275,0,0,0,6.608,15.085l.159.141a20.64,20.64,0,0,0,13.492,4.91,20.275,20.275,0,0,0,20.254-20.251v-.778h-6.955a3.667,3.667,0,1,1,0-7.335h11.532a2.729,2.729,0,0,1,2.726,2.726v5.387A27.594,27.594,0,0,1,249.964,240.291Z" fill="#67949e"/>
      </g>
    </g>
  </g>
</svg>
