<svg xmlns="http://www.w3.org/2000/svg" width="149.096" height="95.501" viewBox="0 0 149.096 95.501">
  <g id="Group_574" data-name="Group 574" transform="translate(-106.655 -158.183)">
    <path id="Path_2579" data-name="Path 2579" d="M326.322,268.72H314.707a9.731,9.731,0,0,0-9.719,9.719,1.9,1.9,0,1,0,3.793,0,5.933,5.933,0,0,1,5.926-5.926h11.616a8.49,8.49,0,0,1,0,16.979H297.456v-5.285c0-.076,0-.159-.007-.235a9.082,9.082,0,1,0-9.077,9.318H293.6v4.361c0,.1,0,.186-.007.276a5.3,5.3,0,0,1-4,4.85c-.152.036-.3.071-.461.094l-.1.015a5.328,5.328,0,0,1-.673.045,5.253,5.253,0,0,1-4.038-1.875,2.225,2.225,0,0,0-.245-.24,5.241,5.241,0,0,1-.713-1.293,1.893,1.893,0,0,0-1.757-1.272h-.1a1.856,1.856,0,0,0-1.739,2.49,8.992,8.992,0,0,0,9.8,5.9c.141-.019.283-.038.422-.063.092-.017.182-.037.273-.057q.331-.07.652-.164l.081-.024a9.087,9.087,0,0,0,6.043-6.012,8.664,8.664,0,0,0,.4-2.4c.007-.089.007-.186.007-.276v-4.35h.007v-.005h28.866a12.283,12.283,0,0,0,0-24.566Zm-43.178,16.3a5.291,5.291,0,1,1,10.512-1.084c0,.011,0,.023,0,.035h0v1.619a1.681,1.681,0,0,0-.052.4V289.5h-5.057A5.408,5.408,0,0,1,283.144,285.023Z" transform="translate(-82.853 -53.051)" fill="#66939d"/>
    <path id="Path_2580" data-name="Path 2580" d="M165.751,287.292a5.222,5.222,0,0,1-5.165,5.991H119.262a12.58,12.58,0,0,1-12.606-12.367,12.128,12.128,0,0,1,1.639-6.022,12.263,12.263,0,0,1,10.646-6.173h11.613a9.722,9.722,0,0,1,9.721,9.72,1.9,1.9,0,0,1-2.278,1.857,1.947,1.947,0,0,1-1.518-1.909,5.934,5.934,0,0,0-5.924-5.877H118.94a8.511,8.511,0,0,0-8.493,8.467,8.717,8.717,0,0,0,8.732,8.513h41.335a1.478,1.478,0,0,0,1.479-1.164,1.431,1.431,0,0,0-1.406-1.686h-3.063a8.513,8.513,0,0,1-8.488-8.487v-.936a8.369,8.369,0,0,1,.328-2.325,8.492,8.492,0,0,1,10.49-5.825,8.022,8.022,0,0,1,2.075.91,8.673,8.673,0,0,1,3.113,3.378,7.033,7.033,0,0,1,.327.915,1.93,1.93,0,0,1-1.841,2.5h0a1.919,1.919,0,0,1-1.753-1.126,8.924,8.924,0,0,0-.885-1.588,6.946,6.946,0,0,0-.49-.505,4.606,4.606,0,0,0-2.9-1.009,4.675,4.675,0,0,0-4.67,4.675v.936a4.691,4.691,0,0,0,4.691,4.691H160.4A5.345,5.345,0,0,1,165.751,287.292Z" transform="translate(0 -53.051)" fill="#66939d"/>
    <rect id="Rectangle_716" data-name="Rectangle 716" width="3.793" height="29.538" rx="1.897" transform="translate(186.172 215.669)" fill="#66939d"/>
    <path id="Path_2581" data-name="Path 2581" d="M230.817,282.939a1.9,1.9,0,1,0-3.793,0v20.613c0,.1,0,.186-.007.276a5.2,5.2,0,0,1-.724,2.4,5.283,5.283,0,0,1-4.559,2.614c-.073,0-.144-.009-.215-.012-.16-.009-.321-.015-.477-.037-.052-.007-.1-.018-.154-.026a5.264,5.264,0,0,1-4.027-3.333,1.893,1.893,0,0,0-1.757-1.272H215a1.856,1.856,0,0,0-1.739,2.49,9.038,9.038,0,0,0,1.2,2.256,2,2,0,0,0,.283.456,9.06,9.06,0,0,0,5.2,3.086q.319.066.646.11l.184.022a9.236,9.236,0,0,0,1.024.064,9.085,9.085,0,0,0,9.077-8.808C230.889,303.749,230.817,282.939,230.817,282.939Z" transform="translate(-51.112 -58.964)" fill="#66939d"/>
    <path id="Path_2582" data-name="Path 2582" d="M241.09,268.72a2.581,2.581,0,0,0-2.581,2.581h0a2.581,2.581,0,1,0,5.161,0h0A2.581,2.581,0,0,0,241.09,268.72Z" transform="translate(-63.281 -53.051)" fill="#66939d"/>
    <circle id="Ellipse_67" data-name="Ellipse 67" cx="2.581" cy="2.581" r="2.581" transform="translate(236.351 241.479)" fill="#66939d"/>
    <g id="Group_571" data-name="Group 571" transform="translate(130.659 241.479)">
      <circle id="Ellipse_68" data-name="Ellipse 68" cx="2.581" cy="2.581" r="2.581" transform="translate(6.146 0)" fill="#66939d"/>
      <path id="Path_2583" data-name="Path 2583" d="M155.391,318.348a2.581,2.581,0,1,0,2.581,2.581A2.581,2.581,0,0,0,155.391,318.348Z" transform="translate(-152.81 -318.348)" fill="#66939d"/>
    </g>
    <g id="Group_573" data-name="Group 573" transform="translate(155.492 158.183)">
      <path id="Path_2584" data-name="Path 2584" d="M226.237,158.183a25.677,25.677,0,1,0,25.677,25.677A25.679,25.679,0,0,0,226.237,158.183Z" transform="translate(-200.56 -158.183)" fill="#f27b7d"/>
      <g id="Group_572" data-name="Group 572" transform="translate(11.335 8.653)">
        <circle id="Ellipse_69" data-name="Ellipse 69" cx="2.581" cy="2.581" r="2.581" transform="translate(11.76 17.122)" fill="#fff"/>
        <path id="Path_2585" data-name="Path 2585" d="M225.794,178.625a1.9,1.9,0,0,1,0-3.8h23.995a1.9,1.9,0,0,1,0,3.8Z" transform="translate(-223.094 -174.821)" fill="#fff"/>
        <path id="Path_2586" data-name="Path 2586" d="M236.714,213.812a15.745,15.745,0,0,1-6.634-1.512,12.722,12.722,0,0,1-6.048-5.892,14.679,14.679,0,0,1,.4-14.356,14.331,14.331,0,0,1,11.992-6.932h12.62a1.9,1.9,0,0,1,0,3.8H237.072l-.563.011-.378.016a10.512,10.512,0,0,0-7.954,4.37,10.765,10.765,0,0,0-2,6.208,10.544,10.544,0,0,0,3.437,7.845l.083.073A10.734,10.734,0,0,0,236.708,210a10.544,10.544,0,0,0,10.533-10.532v-.4h-3.617a1.907,1.907,0,1,1,0-3.815h6a1.419,1.419,0,0,1,1.418,1.418v2.8A14.351,14.351,0,0,1,236.714,213.812Z" transform="translate(-222.356 -179.764)" fill="#fff"/>
      </g>
    </g>
  </g>
</svg>
